<svg xmlns="http://www.w3.org/2000/svg" xmlns:xlink="http://www.w3.org/1999/xlink" width="400" height="400" viewBox="0 0 400 400">
<rect data-name="background" width="100%" height="100%" fill="#1c232b"/><g data-name="icon" fill="#7FB5FF" data="id:7879178" transform="translate(4.0066593123092265, 173.91378144611676) scale(0.5216237350898026)">
  
 <path d="m39.43 18.699c0.98047-0.32812 1.6914-1.2695 1.6914-2.3789 0-1.3906-1.1289-2.5312-2.5312-2.5312-1.3984 0-2.5195 1.1289-2.5195 2.5312 0 1.1094 0.71094 2.0508 1.6914 2.3789v8.1211l0.5 0.51172 1.1797-1.1797-0.019531-0.011719v-7.4414zm-0.82813-1.5195c-0.48047 0-0.85937-0.39063-0.85937-0.87109 0-0.46875 0.37891-0.85938 0.85937-0.85938 0.48047 0 0.85938 0.39062 0.85938 0.85938 0 0.48047-0.38281 0.87109-0.85938 0.87109z"/>
 <path d="m72.949 38.75h-6.2812v-2.1016c0-0.62109-0.46875-1.1484-1.0898-1.2188l-3.6992-0.42188c-0.16016-0.44922-0.33984-0.89062-0.53906-1.3203l2.3203-2.9102c0.37891-0.48047 0.35156-1.1914-0.089844-1.6289l-1.8281-1.8281 0.5-0.51172-0.003907-8.1094c0.98047-0.32812 1.6914-1.2695 1.6914-2.3789 0-1.3906-1.1289-2.5312-2.5312-2.5312-1.3906 0-2.5195 1.1289-2.5195 2.5312 0 1.1094 0.71094 2.0508 1.6914 2.3789v7.4297l-0.019531 0.011719-0.53906-0.53906c-0.44141-0.44141-1.1484-0.46875-1.6289-0.089843l-2.4688 1.9805v-6.2305c0.98047-0.32812 1.6914-1.2812 1.6914-2.3789 0-1.3984-1.1289-2.5195-2.5195-2.5195-1.3906 0-2.5312 1.1211-2.5312 2.5195 0 1.1016 0.71094 2.0391 1.6914 2.3789v6.0781c-0.03125-0.019532-0.058594-0.03125-0.078125-0.03125l-0.42188-3.6992c-0.070313-0.62109-0.58984-1.0898-1.2188-1.0898h-1.6797v-7.6016c0.98047-0.32812 1.6914-1.2695 1.6914-2.3789 0-1.3906-1.1289-2.5195-2.5312-2.5195-1.3906 0-2.5195 1.1289-2.5195 2.5195 0 1.1016 0.71094 2.0391 1.6914 2.3789v7.6016h-1.6797c-0.62109 0-1.1484 0.46875-1.2188 1.0898l-0.42188 3.6992c-0.03125 0.011718-0.058594 0.019531-0.078125 0.03125v-6.0781c0.98047-0.32812 1.6914-1.2812 1.6914-2.3789 0-1.3984-1.1289-2.5195-2.5195-2.5195s-2.5312 1.1211-2.5312 2.5195c0 1.1016 0.71094 2.0391 1.6914 2.3789v6.2305l-2.4805-1.9805c-0.48828-0.37891-1.1914-0.35156-1.6289 0.089843l-3.5586 3.5586c-0.44141 0.44141-0.48047 1.1484-0.089843 1.6289l2.3281 2.9102c-0.19922 0.42969-0.37891 0.87109-0.53906 1.3203l-3.6992 0.42188c-0.62109 0.070313-1.0898 0.58984-1.0898 1.2188v2.1016h-6.2812c-1.3594 0-2.4688 1.1094-2.4688 2.4688v31.32c0 1.3594 1.1094 2.4688 2.4688 2.4688h17.781l-1.1289 7.5h-2.6289l-0.60156 0.039063-2.8398 6.1719c-0.12891 0.28125-0.10938 0.60938 0.058594 0.87109l0.27344 0.39844h23.559c0.30859 0 0.60156-0.16016 0.76953-0.42188l0.25-0.46094-2.8086-6.0898-0.28125-0.53125-3.1758 0.003906-1.1289-7.5h17.781c1.3594 0 2.4688-1.1094 2.4688-2.4688v-31.312c0-1.3594-1.1133-2.4688-2.4727-2.4688zm-12.41-22.43c0-0.46875 0.37891-0.85937 0.85938-0.85937 0.48047 0 0.85937 0.39062 0.85937 0.85937s-0.37891 0.87109-0.85937 0.87109c-0.47656 0-0.85938-0.40234-0.85938-0.87109zm-6.3281 2.5508c0-0.46875 0.37891-0.85938 0.85937-0.85938 0.48047 0 0.85938 0.37891 0.85938 0.85938 0 0.46875-0.37891 0.85938-0.85938 0.85938-0.48047 0-0.85937-0.39062-0.85937-0.85938zm-5.0703-6.3516c0-0.46875 0.37891-0.85938 0.85938-0.85938s0.85938 0.37891 0.85938 0.85938-0.37891 0.85938-0.85938 0.85938-0.85938-0.37891-0.85938-0.85938zm-5.0625 6.3516c0-0.46875 0.37891-0.85938 0.85938-0.85938 0.46875 0 0.85938 0.37891 0.85938 0.85938 0 0.46875-0.37891 0.85938-0.85938 0.85938-0.47656 0-0.85938-0.39062-0.85938-0.85938zm-9.0781 18.18 3.5898-0.41016c0.48047-0.050781 0.87891-0.37891 1.0312-0.85156 0.17969-0.53906 0.39062-1.0781 0.64844-1.5781 0.23047-0.42188 0.17969-0.94922-0.12891-1.3203l-2.2617-2.8281 3-3 2.8281 2.2617c0.37891 0.30078 0.89844 0.35156 1.3281 0.12109 0.5-0.26172 1.0312-0.48047 1.5781-0.64844 0.46875-0.14844 0.80078-0.55859 0.85156-1.0312l0.41016-3.5898h4.2305l0.41016 3.5898c0.050781 0.46875 0.37891 0.87891 0.85156 1.0312 0.53906 0.17188 1.0781 0.39062 1.5781 0.64844 0.42969 0.23047 0.94922 0.17188 1.3281-0.12109l2.8203-2.2617 3 3-2.2617 2.8281c-0.30078 0.37891-0.35156 0.89844-0.12109 1.3281 0.26172 0.5 0.46875 1.0312 0.64844 1.5781 0.14844 0.46875 0.55859 0.80078 1.0312 0.85156l3.6094 0.40234v4.2305l-3.5898 0.41016c-0.48047 0.050782-0.87891 0.37891-1.0312 0.85156-0.17969 0.53906-0.39062 1.0781-0.64844 1.5781-0.23047 0.42188-0.17969 0.94922 0.12109 1.3203l2.2617 2.8281-3 3-2.8203-2.2617c-0.37891-0.30078-0.89844-0.35156-1.3281-0.12109-0.5 0.26172-1.0312 0.48047-1.5781 0.64844-0.46875 0.14844-0.80078 0.55859-0.85156 1.0312l-0.41016 3.5898h-4.2305l-0.41016-3.5898c-0.050781-0.46875-0.37891-0.87891-0.85156-1.0312-0.53906-0.17188-1.0703-0.39062-1.5781-0.64844-0.42188-0.23047-0.94922-0.17188-1.3203 0.12109l-2.8281 2.2617-3-3 2.2617-2.8281c0.30078-0.37891 0.35156-0.89844 0.12891-1.3281-0.26172-0.5-0.48047-1.0312-0.64844-1.5781-0.14844-0.46875-0.55859-0.80078-1.0312-0.85156l-3.6172-0.40234zm20.48 48.777c0.32812 0 0.64844-0.14062 0.87109-0.39844 0.21875-0.25 0.30859-0.57813 0.26953-0.91016l-0.050782-0.35938h1.8906l1.9219 4.1719-20.754-0.003906 1.9219-4.1719h1.8906l-0.050781 0.35938c-0.039063 0.32031 0.050781 0.66016 0.26953 0.91016 0.21875 0.26172 0.53125 0.39844 0.87109 0.39844zm-10.352-1.6562 0.10156-0.67188 1.2812-8.5h6.9688l1.2812 8.5 0.10156 0.67188zm28.621-11.641c0 0.44141-0.35938 0.80078-0.80078 0.80078h-45.898c-0.44141 0-0.80078-0.35938-0.80078-0.80078v-5.0312h47.5zm0-6.7031h-47.5v-24.609c0-0.44141 0.35938-0.80078 0.80078-0.80078h6.2812v1.2695c0 0.62109 0.46875 1.1484 1.0898 1.2188l3.6992 0.42188c0.16016 0.44922 0.33984 0.89062 0.53906 1.3203l-2.3281 2.9102c-0.37891 0.48047-0.35156 1.1914 0.089844 1.6289l3.5586 3.5586c0.44141 0.44141 1.1484 0.48047 1.6289 0.089844l2.9102-2.3281c0.42969 0.19922 0.87109 0.37891 1.3203 0.53906l0.42188 3.6992c0.070312 0.62109 0.58984 1.0898 1.2188 1.0898h5.0312c0.62109 0 1.1484-0.46875 1.2188-1.0898l0.42188-3.6992c0.44922-0.16016 0.89062-0.33984 1.3203-0.53906l2.9102 2.3281c0.48047 0.37891 1.1914 0.35156 1.6289-0.089844l3.5586-3.5586c0.44141-0.44141 0.48047-1.1484 0.089844-1.6289l-2.3203-2.9102c0.19922-0.42969 0.37891-0.87109 0.53906-1.3203l3.6992-0.42188c0.62109-0.070312 1.0898-0.58984 1.0898-1.2188v-1.2695h6.2812c0.44141 0 0.80078 0.35938 0.80078 0.80078z"/>
 <path d="m50 46.672c4.1406 0 7.5-3.3594 7.5-7.5s-3.3594-7.5-7.5-7.5-7.5 3.3594-7.5 7.5c0 4.1367 3.3594 7.5 7.5 7.5zm0-13.344c3.2188 0 5.8281 2.6211 5.8281 5.8281 0 3.2148-2.6094 5.8438-5.8281 5.8438s-5.8281-2.6211-5.8281-5.8281c0-3.2109 2.6094-5.8438 5.8281-5.8438z"/>

  </g><g data-name="business_name" fill="#7FB5FF" data="id:180" transform="translate(67.32259851540671, 182.24096115004943) scale(0.5129704916074121)"><path d="M8.48,48c-0.28,0-0.48-0.24-0.48-0.52l0-18.88l-5.48,0c-0.28,0-0.52-0.2-0.52-0.48l0-4.6c0-0.28,0.24-0.52,0.52-0.52l17.16,0c0.32,0,0.52,0.24,0.52,0.52l0,4.6c0,0.28-0.2,0.48-0.52,0.48l-5.48,0l0,18.88c0,0.28-0.24,0.52-0.52,0.52l-5.2,0z M37.08,48c-2.4,0-4.6-0.56-6.52-1.68c-1.96-1.12-3.52-2.72-4.68-4.64c-1.12-1.96-1.68-4.2-1.68-6.6c0-2.36,0.56-4.56,1.68-6.52c1.16-1.96,2.68-3.52,4.64-4.64s4.16-1.68,6.56-1.68c2.36,0,4.56,0.56,6.52,1.68s3.52,2.68,4.64,4.64c1.16,1.96,1.72,4.16,1.72,6.52c0,2.4-0.56,4.6-1.72,6.56c-1.12,1.96-2.68,3.52-4.64,4.68c-1.96,1.12-4.16,1.68-6.52,1.68z M37.16,42.24c1.16,0,2.24-0.32,3.2-0.92c1-0.64,1.8-1.48,2.36-2.6c0.6-1.08,0.88-2.32,0.88-3.64c0-1.28-0.28-2.52-0.88-3.6c-0.56-1.08-1.36-1.92-2.36-2.56c-0.96-0.6-2.04-0.92-3.2-0.92c-1.2,0-2.28,0.32-3.28,0.92c-1.04,0.64-1.84,1.48-2.44,2.56c-0.6,1.12-0.88,2.32-0.88,3.6c0,1.32,0.28,2.56,0.88,3.64c0.64,1.08,1.44,1.96,2.44,2.56c1,0.64,2.08,0.96,3.28,0.96z M54.48,48c-0.32,0-0.52-0.24-0.52-0.52l0-23.96c0-0.28,0.2-0.52,0.52-0.52l9.08,0c2.4,0,4.6,0.52,6.52,1.6c1.92,1.04,3.4,2.52,4.48,4.44c1.04,1.88,1.6,4.04,1.6,6.44c0,2.44-0.56,4.6-1.64,6.48c-1.08,1.92-2.6,3.4-4.56,4.44c-1.92,1.08-4.16,1.6-6.6,1.6l-8.88,0z M60.16,42.4l3.52,0c1.16,0,2.24-0.28,3.16-0.84c0.92-0.6,1.68-1.4,2.2-2.44s0.8-2.24,0.8-3.6c0-1.32-0.28-2.56-0.84-3.6c-0.56-1.08-1.32-1.88-2.28-2.48c-0.96-0.56-2.08-0.88-3.28-0.88l-3.28,0l0,13.84z M80.68,48c-0.16,0-0.32-0.08-0.4-0.24c-0.12-0.12-0.12-0.32-0.08-0.48l9.32-23.96c0.08-0.2,0.28-0.32,0.48-0.32l5.36,0c0.2,0,0.4,0.12,0.48,0.32l9.16,23.96c0.04,0.16,0.04,0.32-0.08,0.48c-0.08,0.16-0.24,0.24-0.4,0.24l-5.56,0c-0.2,0-0.4-0.12-0.48-0.32l-1.48-3.68l-9,0.04l-1.48,3.64c-0.08,0.2-0.28,0.32-0.48,0.32l-5.36,0z M89.64,39l5.76,0l-2.88-8.48z M117.24,48c-0.28,0-0.48-0.24-0.48-0.52l0-9.52l-8.48-14.2c-0.08-0.16-0.08-0.36,0.04-0.52c0.08-0.16,0.24-0.24,0.44-0.24l5.2,0c0.2,0,0.36,0.08,0.44,0.28l5.44,8.88l5.32-8.88c0.08-0.16,0.24-0.28,0.44-0.28l5.24,0c0.16,0,0.36,0.08,0.44,0.24s0.08,0.36,0,0.52l-8.32,14.04l0,9.68c0,0.28-0.24,0.52-0.52,0.52l-5.2,0z M137.24,30.2c-0.16,0-0.28-0.08-0.4-0.2c-0.08-0.12-0.08-0.28-0.04-0.4l0.68-3.28c-1.32-0.08-2.16-1.44-2.16-2.44c0-0.84,0.28-1.52,0.8-2.08c0.52-0.52,1.2-0.8,1.96-0.8s1.4,0.24,1.92,0.76s0.8,1.24,0.8,2.12c0,0.36-0.08,0.72-0.2,1.08c-0.08,0.28-0.24,0.64-0.44,1.04l-2.12,3.96c-0.12,0.16-0.24,0.24-0.44,0.24l-0.36,0z M155.48,48.24c-1.92,0-3.84-0.36-5.68-1.08c-1.84-0.68-3.48-1.68-4.84-2.88c-0.16-0.16-0.2-0.4-0.12-0.6l1.4-4.76c0.08-0.16,0.2-0.28,0.36-0.28c0.16-0.04,0.32,0,0.44,0.12c2.12,2,4.52,3.8,7.52,3.96c0.8,0.04,1.68,0.08,2.44-0.16c2.36-0.76,1.36-3.16-0.4-3.88c-0.6-0.24-1.44-0.52-2.52-0.84c-1.6-0.44-2.92-0.92-3.92-1.4c-1.08-0.48-2-1.24-2.8-2.24c-0.76-1.04-1.16-2.4-1.16-4.04c0-1.56,0.4-2.92,1.2-4.08s1.92-2.08,3.32-2.68s3.04-0.92,4.88-0.92c1.64,0,3.24,0.24,4.84,0.76c1.56,0.48,2.96,1.16,4.2,1.96c0.2,0.16,0.28,0.4,0.16,0.64l-1.32,4.48c-0.04,0.16-0.16,0.24-0.32,0.28c-0.12,0.04-0.28,0.04-0.4-0.04c-1.8-1.12-3.6-2.48-5.72-2.76c-1.4-0.2-3.52-0.12-4,1.56c-0.6,2.16,2.56,2.72,4,3.16c1.6,0.48,2.92,0.96,3.96,1.44c1.08,0.52,2.04,1.32,2.8,2.32c0.8,1.04,1.2,2.44,1.2,4.12c0,1.64-0.44,3.04-1.28,4.24c-0.8,1.2-1.96,2.08-3.4,2.72c-1.44,0.56-3.04,0.88-4.84,0.88z  M190.48,48.24c-1.92,0-3.84-0.36-5.68-1.08c-1.84-0.68-3.48-1.68-4.84-2.88c-0.16-0.16-0.2-0.4-0.12-0.6l1.4-4.76c0.08-0.16,0.2-0.28,0.36-0.28c0.16-0.04,0.32,0,0.44,0.12c2.12,2,4.52,3.8,7.52,3.96c0.8,0.04,1.68,0.08,2.44-0.16c2.36-0.76,1.36-3.16-0.4-3.88c-0.6-0.24-1.44-0.52-2.52-0.84c-1.6-0.44-2.92-0.92-3.92-1.4c-1.08-0.48-2-1.24-2.8-2.24c-0.76-1.04-1.16-2.4-1.16-4.04c0-1.56,0.4-2.92,1.2-4.08s1.92-2.08,3.32-2.68s3.04-0.92,4.88-0.92c1.64,0,3.24,0.24,4.84,0.76c1.56,0.48,2.96,1.16,4.2,1.96c0.2,0.16,0.28,0.4,0.16,0.64l-1.32,4.48c-0.04,0.16-0.16,0.24-0.32,0.28c-0.12,0.04-0.28,0.04-0.4-0.04c-1.8-1.12-3.6-2.48-5.72-2.76c-1.4-0.2-3.52-0.12-4,1.56c-0.6,2.16,2.56,2.72,4,3.16c1.6,0.48,2.92,0.96,3.96,1.44c1.08,0.52,2.04,1.32,2.8,2.32c0.8,1.04,1.2,2.44,1.2,4.12c0,1.64-0.44,3.04-1.28,4.24c-0.8,1.2-1.96,2.08-3.4,2.72c-1.44,0.56-3.04,0.88-4.84,0.88z M216.88,48c-2.4,0-4.6-0.56-6.52-1.68c-1.96-1.12-3.52-2.72-4.68-4.64c-1.12-1.96-1.68-4.2-1.68-6.6c0-2.36,0.56-4.56,1.68-6.52c1.16-1.96,2.68-3.52,4.64-4.64s4.16-1.68,6.56-1.68c2.36,0,4.56,0.56,6.52,1.68s3.52,2.68,4.64,4.64c1.16,1.96,1.72,4.16,1.72,6.52c0,2.4-0.56,4.6-1.72,6.56c-1.12,1.96-2.68,3.52-4.64,4.68c-1.96,1.12-4.16,1.68-6.52,1.68z M216.96,42.24c1.16,0,2.24-0.32,3.2-0.92c1-0.64,1.8-1.48,2.36-2.6c0.6-1.08,0.88-2.32,0.88-3.64c0-1.28-0.28-2.52-0.88-3.6c-0.56-1.08-1.36-1.92-2.36-2.56c-0.96-0.6-2.04-0.92-3.2-0.92c-1.2,0-2.28,0.32-3.28,0.92c-1.04,0.64-1.84,1.48-2.44,2.56c-0.6,1.12-0.88,2.32-0.88,3.6c0,1.32,0.28,2.56,0.88,3.64c0.64,1.08,1.44,1.96,2.44,2.56c1,0.64,2.08,0.96,3.28,0.96z M234.28,48c-0.28,0-0.52-0.24-0.52-0.52l0-23.96c0-0.28,0.24-0.52,0.52-0.52l16.52,0c0.16,0,0.28,0.04,0.36,0.16c0.12,0.08,0.16,0.2,0.16,0.36l-0.04,4.48c0,0.28-0.24,0.52-0.52,0.52l-10.8,0l0,4.84l6.8,0c0.28,0,0.52,0.24,0.52,0.52l0,4.52c0,0.28-0.24,0.52-0.52,0.52l-6.8,0l0,8.56c0,0.28-0.2,0.52-0.48,0.52l-5.2,0z M261.8,48c-0.28,0-0.48-0.24-0.48-0.52l0-18.88l-5.48,0c-0.28,0-0.52-0.2-0.52-0.48l0-4.6c0-0.28,0.24-0.52,0.52-0.52l17.16,0c0.32,0,0.52,0.24,0.52,0.52l0,4.6c0,0.28-0.2,0.48-0.52,0.48l-5.48,0l0,18.88c0,0.28-0.24,0.52-0.52,0.52l-5.2,0z M285.8,48c-0.24,0-0.44-0.16-0.48-0.36l-7.76-23.96c-0.08-0.16-0.04-0.32,0.08-0.48c0.08-0.12,0.24-0.2,0.4-0.2l5.6,0c0.2,0,0.44,0.16,0.48,0.36l4.16,14.44l3.8-13.72c0.04-0.24,0.24-0.4,0.48-0.4l5.08,0c0.24,0,0.44,0.16,0.52,0.4l3.84,13.72l4.08-14.44c0.08-0.2,0.28-0.36,0.52-0.36l5.36,0c0.16,0,0.32,0.08,0.4,0.2c0.12,0.16,0.12,0.32,0.08,0.48l-7.8,23.96c-0.08,0.2-0.24,0.36-0.48,0.36l-4.68,0c-0.24,0-0.44-0.16-0.48-0.36l-4-14.2l-4.08,14.2c-0.04,0.2-0.24,0.36-0.48,0.36l-4.64,0z M316.6,48c-0.16,0-0.32-0.08-0.4-0.24c-0.12-0.12-0.12-0.32-0.08-0.48l9.32-23.96c0.08-0.2,0.28-0.32,0.48-0.32l5.36,0c0.2,0,0.4,0.12,0.48,0.32l9.16,23.96c0.04,0.16,0.04,0.32-0.08,0.48c-0.08,0.16-0.24,0.24-0.4,0.24l-5.56,0c-0.2,0-0.4-0.12-0.48-0.32l-1.48-3.68l-9,0.04l-1.48,3.64c-0.08,0.2-0.28,0.32-0.48,0.32l-5.36,0z M325.56,39l5.76,0l-2.88-8.48z M344.68,48c-0.32,0-0.52-0.24-0.52-0.52l0-23.96c0-0.28,0.2-0.52,0.52-0.52l9.76,0c3.04,0,5.44,0.76,7.12,2.32c2.48,2.24,3.32,6.48,2.12,9.6c-0.44,1.12-1.2,2.16-2.16,2.92c-0.56,0.44-1.16,0.76-1.76,1.08c1.72,2.72,4.32,8.24,4.32,8.24c0.04,0.08,0.12,0.2,0.12,0.32c0,0.28-0.24,0.52-0.52,0.52l-5.92,0c-0.16,0-0.36-0.12-0.44-0.28l-3.48-7.64c-1.24,0.08-2.2,0.04-3.48,0.04l0,7.36c0,0.28-0.24,0.52-0.52,0.52l-5.16,0z M350.36,34.56c0,0,5.04,0.56,6.8-0.6c0.68-0.44,1.08-1.52,1.08-2.32c-0.04-0.88-0.48-1.8-1.2-2.36c-0.76-0.64-2.64-0.84-3.6-0.84l-3.08,0.08l0,6.04z M368.24,48l0-23.96c0-1,0.2-1.2,0.52-1.2l17.52,0c0.28,0,0.52,0.2,0.52,0.48l0,4.52c0,0.28-0.24,0.52-0.52,0.52l-11.84,0l0,4.16l7.48,0c0.28,0,0.52,0.24,0.52,0.52l0,4.48c0,0.28-0.24,0.52-0.52,0.52l-7.48,0l0,4.28l11.8,0c0.28,0,0.52,0.24,0.52,0.52l0,4.48c0,0.28-0.24,0.52-0.52,0.52l-17.48,0c-0.32,0-0.52-0.24-0.52,0.16z  M402.12,48c-0.32,0-0.52-0.24-0.52-0.52l0-23.96c0-0.28,0.2-0.52,0.52-0.52l9.08,0c2.4,0,4.6,0.52,6.52,1.6c1.92,1.04,3.4,2.52,4.48,4.44c1.04,1.88,1.6,4.04,1.6,6.44c0,2.44-0.56,4.6-1.64,6.48c-1.08,1.92-2.6,3.4-4.56,4.44c-1.92,1.08-4.16,1.6-6.6,1.6l-8.88,0z M407.8,42.4l3.52,0c1.16,0,2.24-0.28,3.16-0.84c0.92-0.6,1.68-1.4,2.2-2.44s0.8-2.24,0.8-3.6c0-1.32-0.28-2.56-0.84-3.6c-0.56-1.08-1.32-1.88-2.28-2.48c-0.96-0.56-2.08-0.88-3.28-0.88l-3.28,0l0,13.84z M427.8,48l0-23.96c0-1,0.2-1.2,0.52-1.2l17.52,0c0.28,0,0.52,0.2,0.52,0.48l0,4.52c0,0.28-0.24,0.52-0.52,0.52l-11.84,0l0,4.16l7.48,0c0.28,0,0.52,0.24,0.52,0.52l0,4.48c0,0.28-0.24,0.52-0.52,0.52l-7.48,0l0,4.28l11.8,0c0.28,0,0.52,0.24,0.52,0.52l0,4.48c0,0.28-0.24,0.52-0.52,0.52l-17.48,0c-0.32,0-0.52-0.24-0.52,0.16z M458.88,48c-0.2,0-0.4-0.12-0.48-0.32l-8-24c-0.08-0.16-0.04-0.32,0.04-0.48c0.12-0.12,0.28-0.2,0.44-0.2l5.6,0c0.2,0,0.4,0.12,0.48,0.36l4.76,15.64l4.8-15.64c0.08-0.24,0.28-0.36,0.48-0.36l5.36,0c0.16,0,0.32,0.08,0.44,0.2c0.08,0.16,0.12,0.32,0.04,0.48l-8.12,24c-0.08,0.2-0.24,0.32-0.48,0.32l-5.36,0z M476.88,48l0-23.96c0-1,0.2-1.2,0.52-1.2l17.52,0c0.28,0,0.52,0.2,0.52,0.48l0,4.52c0,0.28-0.24,0.52-0.52,0.52l-11.84,0l0,4.16l7.48,0c0.28,0,0.52,0.24,0.52,0.52l0,4.48c0,0.28-0.24,0.52-0.52,0.52l-7.48,0l0,4.28l11.8,0c0.28,0,0.52,0.24,0.52,0.52l0,4.48c0,0.28-0.24,0.52-0.52,0.52l-17.48,0c-0.32,0-0.52-0.24-0.52,0.16z M499.96,48c-0.28,0-0.52-0.24-0.52-0.52l0-23.96c0-0.28,0.24-0.52,0.52-0.52l5.2,0c0.28,0,0.52,0.24,0.52,0.52l0,18.72l9,0c0.28,0,0.52,0.24,0.52,0.52l0,4.72c0,0.28-0.24,0.52-0.52,0.52l-14.72,0z M532.08,48c-2.4,0-4.6-0.56-6.52-1.68c-1.96-1.12-3.52-2.72-4.68-4.64c-1.12-1.96-1.68-4.2-1.68-6.6c0-2.36,0.56-4.56,1.68-6.52c1.16-1.96,2.68-3.52,4.64-4.64s4.16-1.68,6.56-1.68c2.36,0,4.56,0.56,6.52,1.68s3.52,2.68,4.64,4.64c1.16,1.96,1.72,4.16,1.72,6.52c0,2.4-0.56,4.6-1.72,6.56c-1.12,1.96-2.68,3.52-4.64,4.68c-1.96,1.12-4.16,1.68-6.52,1.68z M532.16,42.24c1.16,0,2.24-0.32,3.2-0.92c1-0.64,1.8-1.48,2.36-2.6c0.6-1.08,0.88-2.32,0.88-3.64c0-1.28-0.28-2.52-0.88-3.6c-0.56-1.08-1.36-1.92-2.36-2.56c-0.96-0.6-2.04-0.92-3.2-0.92c-1.2,0-2.28,0.32-3.28,0.92c-1.04,0.64-1.84,1.48-2.44,2.56c-0.6,1.12-0.88,2.32-0.88,3.6c0,1.32,0.28,2.56,0.88,3.64c0.64,1.08,1.44,1.96,2.44,2.56c1,0.64,2.08,0.96,3.28,0.96z M549.44,48c-0.28,0-0.48-0.24-0.48-0.52l0-23.96c0-0.28,0.2-0.52,0.48-0.52l9.8,0c3.04,0,5.44,0.76,7.12,2.32c2.48,2.24,3.32,6.48,2.12,9.6c-0.44,1.12-1.2,2.16-2.16,2.92c-3.24,2.52-7.28,2.28-11.16,2.28l0,7.36c0,0.28-0.24,0.52-0.52,0.52l-5.2,0z M555.16,34.56c0,0,5.04,0.56,6.8-0.6c0.68-0.44,1.08-1.52,1.08-2.32c-0.04-0.88-0.48-1.8-1.2-2.36c-0.76-0.64-2.64-0.84-3.6-0.84l-3.08,0.08l0,6.04z M573.08,48l0-23.96c0-1,0.2-1.2,0.52-1.2l17.52,0c0.28,0,0.52,0.2,0.52,0.48l0,4.52c0,0.28-0.24,0.52-0.52,0.52l-11.84,0l0,4.16l7.48,0c0.28,0,0.52,0.24,0.52,0.52l0,4.48c0,0.28-0.24,0.52-0.52,0.52l-7.48,0l0,4.28l11.8,0c0.28,0,0.52,0.24,0.52,0.52l0,4.48c0,0.28-0.24,0.52-0.52,0.52l-17.48,0c-0.32,0-0.52-0.24-0.52,0.16z M596.16,48c-0.32,0-0.52-0.24-0.52-0.52l0-23.96c0-0.28,0.2-0.52,0.52-0.52l9.76,0c3.04,0,5.44,0.76,7.12,2.32c2.48,2.24,3.32,6.48,2.12,9.6c-0.44,1.12-1.2,2.16-2.16,2.92c-0.56,0.44-1.16,0.76-1.76,1.08c1.72,2.72,4.32,8.24,4.32,8.24c0.04,0.08,0.12,0.2,0.12,0.32c0,0.28-0.24,0.52-0.52,0.52l-5.92,0c-0.16,0-0.36-0.12-0.44-0.28l-3.48-7.64c-1.24,0.08-2.2,0.04-3.48,0.04l0,7.36c0,0.28-0.24,0.52-0.52,0.52l-5.16,0z M601.84,34.56c0,0,5.04,0.56,6.8-0.6c0.68-0.44,1.08-1.52,1.08-2.32c-0.04-0.88-0.48-1.8-1.2-2.36c-0.76-0.64-2.64-0.84-3.6-0.84l-3.08,0.08l0,6.04z"/></g></svg>